# Blender v2.81 (sub 16) OBJ File: ''
# www.blender.org
mtllib finishline.mtl
o Cube.005_Cube.007
v -0.450000 9.548834 -0.539961
v -0.450000 11.127518 0.034632
v -0.450000 9.692482 -0.934632
v -0.450000 11.271166 -0.360038
v -0.150000 9.548834 -0.539961
v -0.150000 11.127518 0.034632
v -0.150000 9.692482 -0.934632
v -0.150000 11.271166 -0.360038
v -0.450000 10.009999 -0.580000
v -0.450000 10.009999 0.420000
v -0.450000 10.429999 -0.580000
v -0.450000 10.429999 0.420000
v -0.150000 10.009999 -0.580000
v -0.150000 10.009999 0.420000
v -0.150000 10.429999 -0.580000
v -0.150000 10.429999 0.420000
v -0.450000 9.692482 0.724633
v -0.450000 11.271166 0.150039
v -0.450000 9.548834 0.329962
v -0.450000 11.127518 -0.244632
v -0.150000 9.692482 0.724633
v -0.150000 11.271166 0.150039
v -0.150000 9.548834 0.329962
v -0.150000 11.127518 -0.244632
vt 0.375000 0.000000
vt 0.625000 0.000000
vt 0.625000 0.250000
vt 0.375000 0.250000
vt 0.625000 0.500000
vt 0.375000 0.500000
vt 0.625000 0.750000
vt 0.375000 0.750000
vt 0.625000 1.000000
vt 0.375000 1.000000
vt 0.125000 0.500000
vt 0.125000 0.750000
vt 0.875000 0.500000
vt 0.875000 0.750000
vt 0.375000 0.000000
vt 0.625000 0.000000
vt 0.625000 0.250000
vt 0.375000 0.250000
vt 0.625000 0.500000
vt 0.375000 0.500000
vt 0.625000 0.750000
vt 0.375000 0.750000
vt 0.625000 1.000000
vt 0.375000 1.000000
vt 0.125000 0.500000
vt 0.125000 0.750000
vt 0.875000 0.500000
vt 0.875000 0.750000
vt 0.375000 0.000000
vt 0.625000 0.000000
vt 0.625000 0.250000
vt 0.375000 0.250000
vt 0.625000 0.500000
vt 0.375000 0.500000
vt 0.625000 0.750000
vt 0.375000 0.750000
vt 0.625000 1.000000
vt 0.375000 1.000000
vt 0.125000 0.500000
vt 0.125000 0.750000
vt 0.875000 0.500000
vt 0.875000 0.750000
vn -1.0000 0.0000 0.0000
vn 0.0000 0.3420 -0.9397
vn 1.0000 -0.0000 0.0000
vn 0.0000 -0.3420 0.9397
vn 0.0000 -0.9397 -0.3420
vn 0.0000 0.9397 0.3420
vn 0.0000 1.0000 0.0000
vn 0.0000 -1.0000 0.0000
vn 0.0000 0.0000 -1.0000
vn 0.0000 0.0000 1.0000
vn 0.0000 -0.3420 -0.9397
vn 0.0000 0.3420 0.9397
vn 0.0000 -0.9397 0.3420
vn 0.0000 0.9397 -0.3420
usemtl Material.009
s off
f 1/1/1 2/2/1 4/3/1 3/4/1
f 3/4/2 4/3/2 8/5/2 7/6/2
f 7/6/3 8/5/3 6/7/3 5/8/3
f 5/8/4 6/7/4 2/9/4 1/10/4
f 3/11/5 7/6/5 5/8/5 1/12/5
f 8/5/6 4/13/6 2/14/6 6/7/6
usemtl Material.005
f 9/15/1 10/16/1 12/17/1 11/18/1
f 11/18/7 12/17/7 16/19/7 15/20/7
f 15/20/3 16/19/3 14/21/3 13/22/3
f 13/22/8 14/21/8 10/23/8 9/24/8
f 11/25/9 15/20/9 13/22/9 9/26/9
f 16/19/10 12/27/10 10/28/10 14/21/10
usemtl Material.006
f 17/29/1 18/30/1 20/31/1 19/32/1
f 19/32/11 20/31/11 24/33/11 23/34/11
f 23/34/3 24/33/3 22/35/3 21/36/3
f 21/36/12 22/35/12 18/37/12 17/38/12
f 19/39/13 23/34/13 21/36/13 17/40/13
f 24/33/14 20/41/14 18/42/14 22/35/14
o Cube.006_Cube.008
v -0.450000 10.212730 3.236235
v -0.450000 11.073472 3.745276
v -0.450000 10.426528 2.874723
v -0.450000 11.287270 3.383765
v -0.150000 10.212730 3.236235
v -0.150000 11.073472 3.745276
v -0.150000 10.426528 2.874723
v -0.150000 11.287270 3.383765
v -0.450000 10.426527 3.295276
v -0.450000 11.287270 2.786235
v -0.450000 10.212730 2.933764
v -0.450000 11.073472 2.424723
v -0.150000 10.426527 3.295276
v -0.150000 11.287270 2.786235
v -0.150000 10.212730 2.933764
v -0.150000 11.073472 2.424723
v -0.450000 9.590000 3.340000
v -0.450000 10.590000 3.339999
v -0.450000 9.590000 2.920000
v -0.450000 10.590000 2.920000
v -0.150000 9.590000 3.340000
v -0.150000 10.590000 3.339999
v -0.150000 9.590000 2.920000
v -0.150000 10.590000 2.920000
vt 0.375000 0.000000
vt 0.625000 0.000000
vt 0.625000 0.250000
vt 0.375000 0.250000
vt 0.625000 0.500000
vt 0.375000 0.500000
vt 0.625000 0.750000
vt 0.375000 0.750000
vt 0.625000 1.000000
vt 0.375000 1.000000
vt 0.125000 0.500000
vt 0.125000 0.750000
vt 0.875000 0.500000
vt 0.875000 0.750000
vt 0.375000 0.000000
vt 0.625000 0.000000
vt 0.625000 0.250000
vt 0.375000 0.250000
vt 0.625000 0.500000
vt 0.375000 0.500000
vt 0.625000 0.750000
vt 0.375000 0.750000
vt 0.625000 1.000000
vt 0.375000 1.000000
vt 0.125000 0.500000
vt 0.125000 0.750000
vt 0.875000 0.500000
vt 0.875000 0.750000
vt 0.375000 0.000000
vt 0.625000 0.000000
vt 0.625000 0.250000
vt 0.375000 0.250000
vt 0.625000 0.500000
vt 0.375000 0.500000
vt 0.625000 0.750000
vt 0.375000 0.750000
vt 0.625000 1.000000
vt 0.375000 1.000000
vt 0.125000 0.500000
vt 0.125000 0.750000
vt 0.875000 0.500000
vt 0.875000 0.750000
vn -1.0000 -0.0000 0.0000
vn 0.0000 0.5090 -0.8607
vn 1.0000 0.0000 0.0000
vn 0.0000 -0.5090 0.8607
vn 0.0000 -0.8607 -0.5090
vn 0.0000 0.8607 0.5090
vn 0.0000 -0.5090 -0.8607
vn 0.0000 0.5090 0.8607
vn 0.0000 -0.8607 0.5090
vn 0.0000 0.8607 -0.5090
vn 0.0000 0.0000 -1.0000
vn 0.0000 0.0000 1.0000
vn 0.0000 -1.0000 0.0000
vn 0.0000 1.0000 0.0000
usemtl Material.010
s off
f 25/43/15 26/44/15 28/45/15 27/46/15
f 27/46/16 28/45/16 32/47/16 31/48/16
f 31/48/17 32/47/17 30/49/17 29/50/17
f 29/50/18 30/49/18 26/51/18 25/52/18
f 27/53/19 31/48/19 29/50/19 25/54/19
f 32/47/20 28/55/20 26/56/20 30/49/20
usemtl Material.007
f 33/57/15 34/58/15 36/59/15 35/60/15
f 35/60/21 36/59/21 40/61/21 39/62/21
f 39/62/17 40/61/17 38/63/17 37/64/17
f 37/64/22 38/63/22 34/65/22 33/66/22
f 35/67/23 39/62/23 37/64/23 33/68/23
f 40/61/24 36/69/24 34/70/24 38/63/24
usemtl Material.008
f 41/71/15 42/72/15 44/73/15 43/74/15
f 43/74/25 44/73/25 48/75/25 47/76/25
f 47/76/17 48/75/17 46/77/17 45/78/17
f 45/78/26 46/77/26 42/79/26 41/80/26
f 43/81/27 47/76/27 45/78/27 41/82/27
f 48/75/28 44/83/28 42/84/28 46/77/28
o Cube.001_Cube.009
v -0.450000 10.212730 -3.383765
v -0.450000 11.073472 -2.874723
v -0.450000 10.426528 -3.745276
v -0.450000 11.287270 -3.236235
v -0.150000 10.212730 -3.383765
v -0.150000 11.073472 -2.874723
v -0.150000 10.426528 -3.745276
v -0.150000 11.287270 -3.236235
v -0.450000 10.426527 -3.324724
v -0.450000 11.287270 -3.833765
v -0.450000 10.212730 -3.686235
v -0.450000 11.073472 -4.195277
v -0.150000 10.426527 -3.324724
v -0.150000 11.287270 -3.833765
v -0.150000 10.212730 -3.686235
v -0.150000 11.073472 -4.195277
v -0.450000 9.590000 -3.280000
v -0.450000 10.590000 -3.280000
v -0.450000 9.590000 -3.700000
v -0.450000 10.590000 -3.700000
v -0.150000 9.590000 -3.280000
v -0.150000 10.590000 -3.280000
v -0.150000 9.590000 -3.700000
v -0.150000 10.590000 -3.700000
vt 0.375000 0.000000
vt 0.625000 0.000000
vt 0.625000 0.250000
vt 0.375000 0.250000
vt 0.625000 0.500000
vt 0.375000 0.500000
vt 0.625000 0.750000
vt 0.375000 0.750000
vt 0.625000 1.000000
vt 0.375000 1.000000
vt 0.125000 0.500000
vt 0.125000 0.750000
vt 0.875000 0.500000
vt 0.875000 0.750000
vt 0.375000 0.000000
vt 0.625000 0.000000
vt 0.625000 0.250000
vt 0.375000 0.250000
vt 0.625000 0.500000
vt 0.375000 0.500000
vt 0.625000 0.750000
vt 0.375000 0.750000
vt 0.625000 1.000000
vt 0.375000 1.000000
vt 0.125000 0.500000
vt 0.125000 0.750000
vt 0.875000 0.500000
vt 0.875000 0.750000
vt 0.375000 0.000000
vt 0.625000 0.000000
vt 0.625000 0.250000
vt 0.375000 0.250000
vt 0.625000 0.500000
vt 0.375000 0.500000
vt 0.625000 0.750000
vt 0.375000 0.750000
vt 0.625000 1.000000
vt 0.375000 1.000000
vt 0.125000 0.500000
vt 0.125000 0.750000
vt 0.875000 0.500000
vt 0.875000 0.750000
vn -1.0000 -0.0000 0.0000
vn 0.0000 0.5090 -0.8607
vn 1.0000 0.0000 0.0000
vn 0.0000 -0.5090 0.8607
vn 0.0000 -0.8607 -0.5090
vn 0.0000 0.8607 0.5090
vn 0.0000 -0.5090 -0.8607
vn 0.0000 0.5090 0.8607
vn 0.0000 -0.8607 0.5090
vn 0.0000 0.8607 -0.5090
vn 0.0000 0.0000 -1.0000
vn 0.0000 0.0000 1.0000
vn 0.0000 -1.0000 0.0000
vn 0.0000 1.0000 0.0000
usemtl Material.013
s off
f 49/85/29 50/86/29 52/87/29 51/88/29
f 51/88/30 52/87/30 56/89/30 55/90/30
f 55/90/31 56/89/31 54/91/31 53/92/31
f 53/92/32 54/91/32 50/93/32 49/94/32
f 51/95/33 55/90/33 53/92/33 49/96/33
f 56/89/34 52/97/34 50/98/34 54/91/34
usemtl Material.012
f 57/99/29 58/100/29 60/101/29 59/102/29
f 59/102/35 60/101/35 64/103/35 63/104/35
f 63/104/31 64/103/31 62/105/31 61/106/31
f 61/106/36 62/105/36 58/107/36 57/108/36
f 59/109/37 63/104/37 61/106/37 57/110/37
f 64/103/38 60/111/38 58/112/38 62/105/38
usemtl Material.011
f 65/113/29 66/114/29 68/115/29 67/116/29
f 67/116/39 68/115/39 72/117/39 71/118/39
f 71/118/31 72/117/31 70/119/31 69/120/31
f 69/120/40 70/119/40 66/121/40 65/122/40
f 67/123/41 71/118/41 69/120/41 65/124/41
f 72/117/42 68/125/42 66/126/42 70/119/42
o Cylinder
v 0.000000 0.000000 -5.300000
v 0.000000 14.000000 -5.300000
v 0.058527 0.000000 -5.294236
v 0.058527 14.000000 -5.294236
v 0.114805 0.000000 -5.277164
v 0.114805 14.000000 -5.277164
v 0.166671 0.000000 -5.249441
v 0.166671 14.000000 -5.249441
v 0.212132 0.000000 -5.212132
v 0.212132 14.000000 -5.212132
v 0.249441 0.000000 -5.166671
v 0.249441 14.000000 -5.166671
v 0.277164 0.000000 -5.114805
v 0.277164 14.000000 -5.114805
v 0.294236 0.000000 -5.058527
v 0.294236 14.000000 -5.058527
v 0.300000 0.000000 -5.000000
v 0.300000 14.000000 -5.000000
v 0.294236 0.000000 -4.941473
v 0.294236 14.000000 -4.941473
v 0.277164 0.000000 -4.885195
v 0.277164 14.000000 -4.885195
v 0.249441 0.000000 -4.833329
v 0.249441 14.000000 -4.833329
v 0.212132 0.000000 -4.787868
v 0.212132 14.000000 -4.787868
v 0.166671 0.000000 -4.750559
v 0.166671 14.000000 -4.750559
v 0.114805 0.000000 -4.722836
v 0.114805 14.000000 -4.722836
v 0.058527 0.000000 -4.705764
v 0.058527 14.000000 -4.705764
v -0.000000 0.000000 -4.700000
v -0.000000 14.000000 -4.700000
v -0.058527 0.000000 -4.705764
v -0.058527 14.000000 -4.705764
v -0.114805 0.000000 -4.722836
v -0.114805 14.000000 -4.722836
v -0.166671 0.000000 -4.750559
v -0.166671 14.000000 -4.750559
v -0.212132 0.000000 -4.787868
v -0.212132 14.000000 -4.787868
v -0.249441 0.000000 -4.833329
v -0.249441 14.000000 -4.833329
v -0.277164 0.000000 -4.885195
v -0.277164 14.000000 -4.885195
v -0.294236 0.000000 -4.941473
v -0.294236 14.000000 -4.941473
v -0.300000 0.000000 -5.000000
v -0.300000 14.000000 -5.000000
v -0.294236 0.000000 -5.058527
v -0.294236 14.000000 -5.058527
v -0.277164 0.000000 -5.114805
v -0.277164 14.000000 -5.114805
v -0.249441 0.000000 -5.166671
v -0.249441 14.000000 -5.166671
v -0.212132 0.000000 -5.212132
v -0.212132 14.000000 -5.212132
v -0.166671 0.000000 -5.249441
v -0.166671 14.000000 -5.249441
v -0.114805 0.000000 -5.277164
v -0.114805 14.000000 -5.277164
v -0.058527 0.000000 -5.294236
v -0.058527 14.000000 -5.294236
vt 1.000000 0.500000
vt 1.000000 1.000000
vt 0.968750 1.000000
vt 0.968750 0.500000
vt 0.937500 1.000000
vt 0.937500 0.500000
vt 0.906250 1.000000
vt 0.906250 0.500000
vt 0.875000 1.000000
vt 0.875000 0.500000
vt 0.843750 1.000000
vt 0.843750 0.500000
vt 0.812500 1.000000
vt 0.812500 0.500000
vt 0.781250 1.000000
vt 0.781250 0.500000
vt 0.750000 1.000000
vt 0.750000 0.500000
vt 0.718750 1.000000
vt 0.718750 0.500000
vt 0.687500 1.000000
vt 0.687500 0.500000
vt 0.656250 1.000000
vt 0.656250 0.500000
vt 0.625000 1.000000
vt 0.625000 0.500000
vt 0.593750 1.000000
vt 0.593750 0.500000
vt 0.562500 1.000000
vt 0.562500 0.500000
vt 0.531250 1.000000
vt 0.531250 0.500000
vt 0.500000 1.000000
vt 0.500000 0.500000
vt 0.468750 1.000000
vt 0.468750 0.500000
vt 0.437500 1.000000
vt 0.437500 0.500000
vt 0.406250 1.000000
vt 0.406250 0.500000
vt 0.375000 1.000000
vt 0.375000 0.500000
vt 0.343750 1.000000
vt 0.343750 0.500000
vt 0.312500 1.000000
vt 0.312500 0.500000
vt 0.281250 1.000000
vt 0.281250 0.500000
vt 0.250000 1.000000
vt 0.250000 0.500000
vt 0.218750 1.000000
vt 0.218750 0.500000
vt 0.187500 1.000000
vt 0.187500 0.500000
vt 0.156250 1.000000
vt 0.156250 0.500000
vt 0.125000 1.000000
vt 0.125000 0.500000
vt 0.093750 1.000000
vt 0.093750 0.500000
vt 0.062500 1.000000
vt 0.062500 0.500000
vt 0.296822 0.485388
vt 0.250000 0.490000
vt 0.203179 0.485389
vt 0.158156 0.471731
vt 0.116663 0.449553
vt 0.080295 0.419706
vt 0.050447 0.383337
vt 0.028269 0.341844
vt 0.014612 0.296822
vt 0.010000 0.250000
vt 0.014611 0.203179
vt 0.028269 0.158156
vt 0.050447 0.116663
vt 0.080294 0.080294
vt 0.116663 0.050447
vt 0.158156 0.028269
vt 0.203178 0.014612
vt 0.250000 0.010000
vt 0.296822 0.014612
vt 0.341844 0.028269
vt 0.383337 0.050447
vt 0.419706 0.080294
vt 0.449553 0.116663
vt 0.471731 0.158156
vt 0.485388 0.203178
vt 0.490000 0.250000
vt 0.485388 0.296822
vt 0.471731 0.341844
vt 0.449553 0.383337
vt 0.419706 0.419706
vt 0.383337 0.449553
vt 0.341844 0.471731
vt 0.031250 1.000000
vt 0.031250 0.500000
vt 0.000000 1.000000
vt 0.000000 0.500000
vt 0.750000 0.490000
vt 0.796822 0.485388
vt 0.841844 0.471731
vt 0.883337 0.449553
vt 0.919706 0.419706
vt 0.949553 0.383337
vt 0.971731 0.341844
vt 0.985388 0.296822
vt 0.990000 0.250000
vt 0.985388 0.203178
vt 0.971731 0.158156
vt 0.949553 0.116663
vt 0.919706 0.080294
vt 0.883337 0.050447
vt 0.841844 0.028269
vt 0.796822 0.014612
vt 0.750000 0.010000
vt 0.703178 0.014612
vt 0.658156 0.028269
vt 0.616663 0.050447
vt 0.580294 0.080294
vt 0.550447 0.116663
vt 0.528269 0.158156
vt 0.514611 0.203179
vt 0.510000 0.250000
vt 0.514612 0.296822
vt 0.528269 0.341844
vt 0.550447 0.383337
vt 0.580295 0.419706
vt 0.616663 0.449553
vt 0.658156 0.471731
vt 0.703179 0.485389
vn 0.0980 0.0000 -0.9952
vn 0.2903 0.0000 -0.9569
vn 0.4714 0.0000 -0.8819
vn 0.6344 0.0000 -0.7730
vn 0.7730 0.0000 -0.6344
vn 0.8819 0.0000 -0.4714
vn 0.9569 0.0000 -0.2903
vn 0.9952 0.0000 -0.0980
vn 0.9952 0.0000 0.0980
vn 0.9569 0.0000 0.2903
vn 0.8819 0.0000 0.4714
vn 0.7730 0.0000 0.6344
vn 0.6344 0.0000 0.7730
vn 0.4714 0.0000 0.8819
vn 0.2903 0.0000 0.9569
vn 0.0980 0.0000 0.9952
vn -0.0980 0.0000 0.9952
vn -0.2903 0.0000 0.9569
vn -0.4714 0.0000 0.8819
vn -0.6344 0.0000 0.7730
vn -0.7730 0.0000 0.6344
vn -0.8819 0.0000 0.4714
vn -0.9569 0.0000 0.2903
vn -0.9952 0.0000 0.0980
vn -0.9952 0.0000 -0.0980
vn -0.9569 0.0000 -0.2903
vn -0.8819 0.0000 -0.4714
vn -0.7730 0.0000 -0.6344
vn -0.6344 0.0000 -0.7730
vn -0.4714 0.0000 -0.8819
vn 0.0000 1.0000 0.0000
vn -0.2903 0.0000 -0.9569
vn -0.0980 0.0000 -0.9952
vn 0.0000 -1.0000 0.0000
usemtl Material.003
s off
f 73/127/43 74/128/43 76/129/43 75/130/43
f 75/130/44 76/129/44 78/131/44 77/132/44
f 77/132/45 78/131/45 80/133/45 79/134/45
f 79/134/46 80/133/46 82/135/46 81/136/46
f 81/136/47 82/135/47 84/137/47 83/138/47
f 83/138/48 84/137/48 86/139/48 85/140/48
f 85/140/49 86/139/49 88/141/49 87/142/49
f 87/142/50 88/141/50 90/143/50 89/144/50
f 89/144/51 90/143/51 92/145/51 91/146/51
f 91/146/52 92/145/52 94/147/52 93/148/52
f 93/148/53 94/147/53 96/149/53 95/150/53
f 95/150/54 96/149/54 98/151/54 97/152/54
f 97/152/55 98/151/55 100/153/55 99/154/55
f 99/154/56 100/153/56 102/155/56 101/156/56
f 101/156/57 102/155/57 104/157/57 103/158/57
f 103/158/58 104/157/58 106/159/58 105/160/58
f 105/160/59 106/159/59 108/161/59 107/162/59
f 107/162/60 108/161/60 110/163/60 109/164/60
f 109/164/61 110/163/61 112/165/61 111/166/61
f 111/166/62 112/165/62 114/167/62 113/168/62
f 113/168/63 114/167/63 116/169/63 115/170/63
f 115/170/64 116/169/64 118/171/64 117/172/64
f 117/172/65 118/171/65 120/173/65 119/174/65
f 119/174/66 120/173/66 122/175/66 121/176/66
f 121/176/67 122/175/67 124/177/67 123/178/67
f 123/178/68 124/177/68 126/179/68 125/180/68
f 125/180/69 126/179/69 128/181/69 127/182/69
f 127/182/70 128/181/70 130/183/70 129/184/70
f 129/184/71 130/183/71 132/185/71 131/186/71
f 131/186/72 132/185/72 134/187/72 133/188/72
f 76/189/73 74/190/73 136/191/73 134/192/73 132/193/73 130/194/73 128/195/73 126/196/73 124/197/73 122/198/73 120/199/73 118/200/73 116/201/73 114/202/73 112/203/73 110/204/73 108/205/73 106/206/73 104/207/73 102/208/73 100/209/73 98/210/73 96/211/73 94/212/73 92/213/73 90/214/73 88/215/73 86/216/73 84/217/73 82/218/73 80/219/73 78/220/73
f 133/188/74 134/187/74 136/221/74 135/222/74
f 135/222/75 136/221/75 74/223/75 73/224/75
f 73/225/76 75/226/76 77/227/76 79/228/76 81/229/76 83/230/76 85/231/76 87/232/76 89/233/76 91/234/76 93/235/76 95/236/76 97/237/76 99/238/76 101/239/76 103/240/76 105/241/76 107/242/76 109/243/76 111/244/76 113/245/76 115/246/76 117/247/76 119/248/76 121/249/76 123/250/76 125/251/76 127/252/76 129/253/76 131/254/76 133/255/76 135/256/76
o Cylinder.001
v 0.000000 0.000000 4.700000
v 0.000000 14.000000 4.700000
v 0.058527 0.000000 4.705764
v 0.058527 14.000000 4.705764
v 0.114805 0.000000 4.722836
v 0.114805 14.000000 4.722836
v 0.166671 0.000000 4.750559
v 0.166671 14.000000 4.750559
v 0.212132 0.000000 4.787868
v 0.212132 14.000000 4.787868
v 0.249441 0.000000 4.833329
v 0.249441 14.000000 4.833329
v 0.277164 0.000000 4.885195
v 0.277164 14.000000 4.885195
v 0.294236 0.000000 4.941473
v 0.294236 14.000000 4.941473
v 0.300000 0.000000 5.000000
v 0.300000 14.000000 5.000000
v 0.294236 0.000000 5.058527
v 0.294236 14.000000 5.058527
v 0.277164 0.000000 5.114805
v 0.277164 14.000000 5.114805
v 0.249441 0.000000 5.166671
v 0.249441 14.000000 5.166671
v 0.212132 0.000000 5.212132
v 0.212132 14.000000 5.212132
v 0.166671 0.000000 5.249441
v 0.166671 14.000000 5.249441
v 0.114805 0.000000 5.277164
v 0.114805 14.000000 5.277164
v 0.058527 0.000000 5.294236
v 0.058527 14.000000 5.294236
v -0.000000 0.000000 5.300000
v -0.000000 14.000000 5.300000
v -0.058527 0.000000 5.294236
v -0.058527 14.000000 5.294236
v -0.114805 0.000000 5.277164
v -0.114805 14.000000 5.277164
v -0.166671 0.000000 5.249441
v -0.166671 14.000000 5.249441
v -0.212132 0.000000 5.212132
v -0.212132 14.000000 5.212132
v -0.249441 0.000000 5.166671
v -0.249441 14.000000 5.166671
v -0.277164 0.000000 5.114805
v -0.277164 14.000000 5.114805
v -0.294236 0.000000 5.058527
v -0.294236 14.000000 5.058527
v -0.300000 0.000000 5.000000
v -0.300000 14.000000 5.000000
v -0.294236 0.000000 4.941473
v -0.294236 14.000000 4.941473
v -0.277164 0.000000 4.885195
v -0.277164 14.000000 4.885195
v -0.249441 0.000000 4.833329
v -0.249441 14.000000 4.833329
v -0.212132 0.000000 4.787868
v -0.212132 14.000000 4.787868
v -0.166671 0.000000 4.750559
v -0.166671 14.000000 4.750559
v -0.114805 0.000000 4.722836
v -0.114805 14.000000 4.722836
v -0.058527 0.000000 4.705764
v -0.058527 14.000000 4.705764
vt 1.000000 0.500000
vt 1.000000 1.000000
vt 0.968750 1.000000
vt 0.968750 0.500000
vt 0.937500 1.000000
vt 0.937500 0.500000
vt 0.906250 1.000000
vt 0.906250 0.500000
vt 0.875000 1.000000
vt 0.875000 0.500000
vt 0.843750 1.000000
vt 0.843750 0.500000
vt 0.812500 1.000000
vt 0.812500 0.500000
vt 0.781250 1.000000
vt 0.781250 0.500000
vt 0.750000 1.000000
vt 0.750000 0.500000
vt 0.718750 1.000000
vt 0.718750 0.500000
vt 0.687500 1.000000
vt 0.687500 0.500000
vt 0.656250 1.000000
vt 0.656250 0.500000
vt 0.625000 1.000000
vt 0.625000 0.500000
vt 0.593750 1.000000
vt 0.593750 0.500000
vt 0.562500 1.000000
vt 0.562500 0.500000
vt 0.531250 1.000000
vt 0.531250 0.500000
vt 0.500000 1.000000
vt 0.500000 0.500000
vt 0.468750 1.000000
vt 0.468750 0.500000
vt 0.437500 1.000000
vt 0.437500 0.500000
vt 0.406250 1.000000
vt 0.406250 0.500000
vt 0.375000 1.000000
vt 0.375000 0.500000
vt 0.343750 1.000000
vt 0.343750 0.500000
vt 0.312500 1.000000
vt 0.312500 0.500000
vt 0.281250 1.000000
vt 0.281250 0.500000
vt 0.250000 1.000000
vt 0.250000 0.500000
vt 0.218750 1.000000
vt 0.218750 0.500000
vt 0.187500 1.000000
vt 0.187500 0.500000
vt 0.156250 1.000000
vt 0.156250 0.500000
vt 0.125000 1.000000
vt 0.125000 0.500000
vt 0.093750 1.000000
vt 0.093750 0.500000
vt 0.062500 1.000000
vt 0.062500 0.500000
vt 0.296822 0.485388
vt 0.250000 0.490000
vt 0.203179 0.485389
vt 0.158156 0.471731
vt 0.116663 0.449553
vt 0.080295 0.419706
vt 0.050447 0.383337
vt 0.028269 0.341844
vt 0.014612 0.296822
vt 0.010000 0.250000
vt 0.014611 0.203179
vt 0.028269 0.158156
vt 0.050447 0.116663
vt 0.080294 0.080294
vt 0.116663 0.050447
vt 0.158156 0.028269
vt 0.203178 0.014612
vt 0.250000 0.010000
vt 0.296822 0.014612
vt 0.341844 0.028269
vt 0.383337 0.050447
vt 0.419706 0.080294
vt 0.449553 0.116663
vt 0.471731 0.158156
vt 0.485388 0.203178
vt 0.490000 0.250000
vt 0.485388 0.296822
vt 0.471731 0.341844
vt 0.449553 0.383337
vt 0.419706 0.419706
vt 0.383337 0.449553
vt 0.341844 0.471731
vt 0.031250 1.000000
vt 0.031250 0.500000
vt 0.000000 1.000000
vt 0.000000 0.500000
vt 0.750000 0.490000
vt 0.796822 0.485388
vt 0.841844 0.471731
vt 0.883337 0.449553
vt 0.919706 0.419706
vt 0.949553 0.383337
vt 0.971731 0.341844
vt 0.985388 0.296822
vt 0.990000 0.250000
vt 0.985388 0.203178
vt 0.971731 0.158156
vt 0.949553 0.116663
vt 0.919706 0.080294
vt 0.883337 0.050447
vt 0.841844 0.028269
vt 0.796822 0.014612
vt 0.750000 0.010000
vt 0.703178 0.014612
vt 0.658156 0.028269
vt 0.616663 0.050447
vt 0.580294 0.080294
vt 0.550447 0.116663
vt 0.528269 0.158156
vt 0.514611 0.203179
vt 0.510000 0.250000
vt 0.514612 0.296822
vt 0.528269 0.341844
vt 0.550447 0.383337
vt 0.580295 0.419706
vt 0.616663 0.449553
vt 0.658156 0.471731
vt 0.703179 0.485389
vn 0.0980 0.0000 -0.9952
vn 0.2903 0.0000 -0.9569
vn 0.4714 0.0000 -0.8819
vn 0.6344 0.0000 -0.7730
vn 0.7730 0.0000 -0.6344
vn 0.8819 0.0000 -0.4714
vn 0.9569 0.0000 -0.2903
vn 0.9952 0.0000 -0.0980
vn 0.9952 0.0000 0.0980
vn 0.9569 0.0000 0.2903
vn 0.8819 0.0000 0.4714
vn 0.7730 0.0000 0.6344
vn 0.6344 0.0000 0.7730
vn 0.4714 0.0000 0.8819
vn 0.2903 0.0000 0.9569
vn 0.0980 0.0000 0.9952
vn -0.0980 0.0000 0.9952
vn -0.2903 0.0000 0.9569
vn -0.4714 0.0000 0.8819
vn -0.6344 0.0000 0.7730
vn -0.7730 0.0000 0.6344
vn -0.8819 0.0000 0.4714
vn -0.9569 0.0000 0.2903
vn -0.9952 0.0000 0.0980
vn -0.9952 0.0000 -0.0980
vn -0.9569 0.0000 -0.2903
vn -0.8819 0.0000 -0.4714
vn -0.7730 0.0000 -0.6344
vn -0.6344 0.0000 -0.7730
vn -0.4714 0.0000 -0.8819
vn 0.0000 1.0000 0.0000
vn -0.2903 0.0000 -0.9569
vn -0.0980 0.0000 -0.9952
vn 0.0000 -1.0000 0.0000
usemtl Material.002
s off
f 137/257/77 138/258/77 140/259/77 139/260/77
f 139/260/78 140/259/78 142/261/78 141/262/78
f 141/262/79 142/261/79 144/263/79 143/264/79
f 143/264/80 144/263/80 146/265/80 145/266/80
f 145/266/81 146/265/81 148/267/81 147/268/81
f 147/268/82 148/267/82 150/269/82 149/270/82
f 149/270/83 150/269/83 152/271/83 151/272/83
f 151/272/84 152/271/84 154/273/84 153/274/84
f 153/274/85 154/273/85 156/275/85 155/276/85
f 155/276/86 156/275/86 158/277/86 157/278/86
f 157/278/87 158/277/87 160/279/87 159/280/87
f 159/280/88 160/279/88 162/281/88 161/282/88
f 161/282/89 162/281/89 164/283/89 163/284/89
f 163/284/90 164/283/90 166/285/90 165/286/90
f 165/286/91 166/285/91 168/287/91 167/288/91
f 167/288/92 168/287/92 170/289/92 169/290/92
f 169/290/93 170/289/93 172/291/93 171/292/93
f 171/292/94 172/291/94 174/293/94 173/294/94
f 173/294/95 174/293/95 176/295/95 175/296/95
f 175/296/96 176/295/96 178/297/96 177/298/96
f 177/298/97 178/297/97 180/299/97 179/300/97
f 179/300/98 180/299/98 182/301/98 181/302/98
f 181/302/99 182/301/99 184/303/99 183/304/99
f 183/304/100 184/303/100 186/305/100 185/306/100
f 185/306/101 186/305/101 188/307/101 187/308/101
f 187/308/102 188/307/102 190/309/102 189/310/102
f 189/310/103 190/309/103 192/311/103 191/312/103
f 191/312/104 192/311/104 194/313/104 193/314/104
f 193/314/105 194/313/105 196/315/105 195/316/105
f 195/316/106 196/315/106 198/317/106 197/318/106
f 140/319/107 138/320/107 200/321/107 198/322/107 196/323/107 194/324/107 192/325/107 190/326/107 188/327/107 186/328/107 184/329/107 182/330/107 180/331/107 178/332/107 176/333/107 174/334/107 172/335/107 170/336/107 168/337/107 166/338/107 164/339/107 162/340/107 160/341/107 158/342/107 156/343/107 154/344/107 152/345/107 150/346/107 148/347/107 146/348/107 144/349/107 142/350/107
f 197/318/108 198/317/108 200/351/108 199/352/108
f 199/352/109 200/351/109 138/353/109 137/354/109
f 137/355/110 139/356/110 141/357/110 143/358/110 145/359/110 147/360/110 149/361/110 151/362/110 153/363/110 155/364/110 157/365/110 159/366/110 161/367/110 163/368/110 165/369/110 167/370/110 169/371/110 171/372/110 173/373/110 175/374/110 177/375/110 179/376/110 181/377/110 183/378/110 185/379/110 187/380/110 189/381/110 191/382/110 193/383/110 195/384/110 197/385/110 199/386/110
o Cube_Cube.002
v -0.300000 9.309999 5.000000
v -0.300000 11.670000 5.000000
v -0.300000 9.309999 -5.000000
v -0.300000 11.670000 -5.000000
v 0.300000 9.309999 5.000000
v 0.300000 11.670000 5.000000
v 0.300000 9.309999 -5.000000
v 0.300000 11.670000 -5.000000
vt 0.375000 0.000000
vt 0.625000 0.000000
vt 0.625000 0.250000
vt 0.375000 0.250000
vt 0.625000 0.500000
vt 0.375000 0.500000
vt 0.625000 0.750000
vt 0.375000 0.750000
vt 0.625000 1.000000
vt 0.375000 1.000000
vt 0.125000 0.500000
vt 0.125000 0.750000
vt 0.875000 0.500000
vt 0.875000 0.750000
vn -1.0000 0.0000 0.0000
vn 0.0000 0.0000 -1.0000
vn 1.0000 0.0000 0.0000
vn 0.0000 0.0000 1.0000
vn 0.0000 -1.0000 0.0000
vn 0.0000 1.0000 0.0000
usemtl Material.004
s off
f 201/387/111 202/388/111 204/389/111 203/390/111
f 203/390/112 204/389/112 208/391/112 207/392/112
f 207/392/113 208/391/113 206/393/113 205/394/113
f 205/394/114 206/393/114 202/395/114 201/396/114
f 203/397/115 207/392/115 205/394/115 201/398/115
f 208/391/116 204/399/116 202/400/116 206/393/116
