# Blender v2.81 (sub 16) OBJ File: ''
# www.blender.org
mtllib bench.mtl
o Cube.005_Cube.008
v -0.698224 2.214856 3.450000
v -0.698224 2.025144 3.450000
v -0.301776 2.214856 3.450000
v -0.301776 2.025144 3.450000
v -0.698224 2.214856 -3.430000
v -0.698224 2.025144 -3.430000
v -0.301776 2.214856 -3.430000
v -0.301776 2.025144 -3.430000
v -5.251455 3.624918 -4.193875
v -5.702797 0.014364 -4.193875
v -5.251455 3.624918 -3.806125
v -5.702797 0.014364 -3.806125
v -5.097202 3.605636 -4.193875
v -5.548544 -0.004919 -4.193875
v -5.097202 3.605636 -3.806125
v -5.548544 -0.004919 -3.806125
v -5.251455 3.624918 3.806123
v -5.702798 0.014364 3.806123
v -5.251455 3.624918 4.193873
v -5.702798 0.014364 4.193873
v -5.097202 3.605636 3.806123
v -5.548545 -0.004918 3.806123
v -5.097202 3.605636 4.193873
v -5.548545 -0.004918 4.193873
v -0.302798 3.605636 -4.193875
v 0.148545 -0.004919 -4.193875
v -0.302798 3.605636 -3.806124
v 0.148545 -0.004919 -3.806124
v -0.148545 3.624918 -4.193875
v 0.302798 0.014364 -4.193875
v -0.148545 3.624918 -3.806124
v 0.302798 0.014364 -3.806124
v -0.302798 3.605636 3.806123
v 0.148545 -0.004918 3.806123
v -0.302798 3.605636 4.193874
v 0.148545 -0.004918 4.193874
v -0.148545 3.624918 3.806123
v 0.302798 0.014364 3.806123
v -0.148545 3.624918 4.193874
v 0.302798 0.014364 4.193874
v -0.196910 2.214856 3.411775
v -0.196910 2.025144 3.411775
v -0.196910 2.214856 3.808224
v -0.196910 2.025144 3.808224
v -5.043090 2.214856 3.411775
v -5.043090 2.025144 3.411775
v -5.043090 2.214856 3.808224
v -5.043090 2.025144 3.808224
v -5.438224 2.214856 3.809999
v -5.438224 2.025144 3.809999
v -5.041776 2.214856 3.809999
v -5.041776 2.025144 3.809999
v -5.438224 2.214856 -3.790000
v -5.438224 2.025144 -3.790000
v -5.041776 2.214856 -3.790000
v -5.041776 2.025144 -3.790000
v -1.198224 2.214856 3.449999
v -1.198224 2.025144 3.449999
v -0.801776 2.214856 3.449999
v -0.801776 2.025144 3.449999
v -1.198224 2.214856 -3.430000
v -1.198224 2.025144 -3.430000
v -0.801776 2.214856 -3.430000
v -0.801776 2.025144 -3.430000
v -1.698224 2.214856 3.449999
v -1.698224 2.025144 3.449999
v -1.301775 2.214856 3.449999
v -1.301775 2.025144 3.449999
v -1.698224 2.214856 -3.430000
v -1.698224 2.025144 -3.430000
v -1.301776 2.214856 -3.430000
v -1.301776 2.025144 -3.430000
v -2.198224 2.214856 3.449999
v -2.198224 2.025144 3.449999
v -1.801776 2.214856 3.449999
v -1.801776 2.025144 3.449999
v -2.198224 2.214856 -3.430000
v -2.198224 2.025144 -3.430000
v -1.801776 2.214856 -3.430000
v -1.801776 2.025144 -3.430000
v -2.698224 2.214856 3.449999
v -2.698224 2.025144 3.449999
v -2.301776 2.214856 3.449999
v -2.301776 2.025144 3.449999
v -2.698224 2.214856 -3.430000
v -2.698224 2.025144 -3.430000
v -2.301776 2.214856 -3.430000
v -2.301776 2.025144 -3.430000
v -3.198224 2.214856 3.449999
v -3.198224 2.025144 3.449999
v -2.801775 2.214856 3.449999
v -2.801775 2.025144 3.449999
v -3.198224 2.214856 -3.430000
v -3.198224 2.025144 -3.430000
v -2.801776 2.214856 -3.430000
v -2.801776 2.025144 -3.430000
v -3.698224 2.214856 3.449999
v -3.698224 2.025144 3.449999
v -3.301775 2.214856 3.449999
v -3.301775 2.025144 3.449999
v -3.698224 2.214856 -3.430000
v -3.698224 2.025144 -3.430000
v -3.301776 2.214856 -3.430000
v -3.301776 2.025144 -3.430000
v -4.198224 2.214856 3.449999
v -4.198224 2.025144 3.449999
v -3.801775 2.214856 3.449999
v -3.801775 2.025144 3.449999
v -4.198224 2.214856 -3.430000
v -4.198224 2.025144 -3.430000
v -3.801776 2.214856 -3.430000
v -3.801776 2.025144 -3.430000
v -4.698225 2.214856 3.449999
v -4.698225 2.025144 3.449999
v -4.301775 2.214856 3.449999
v -4.301775 2.025144 3.449999
v -4.698225 2.214856 -3.430000
v -4.698225 2.025144 -3.430000
v -4.301776 2.214856 -3.430000
v -4.301776 2.025144 -3.430000
v -5.096827 2.438129 3.449999
v -4.907267 2.445743 3.449999
v -5.112737 2.834258 3.449999
v -4.923177 2.841871 3.449999
v -5.096827 2.438129 -3.430000
v -4.907267 2.445743 -3.430000
v -5.112737 2.834258 -3.430000
v -4.923177 2.841871 -3.430000
v -0.166910 3.634856 3.801775
v -0.166910 3.445144 3.801775
v -0.166910 3.634856 4.198224
v -0.166910 3.445144 4.198224
v -5.253090 3.634856 3.801775
v -5.253090 3.445144 3.801775
v -5.253090 3.634856 4.198224
v -5.253090 3.445144 4.198224
v -4.757077 2.012987 3.411775
v -4.946594 2.004381 3.411775
v -4.757077 2.012987 3.808223
v -4.946594 2.004381 3.808223
v -4.913406 5.455619 3.411775
v -5.102922 5.447013 3.411775
v -4.913406 5.455619 3.808223
v -5.102923 5.447013 3.808223
v -0.166910 3.634856 -4.198224
v -0.166910 3.445144 -4.198224
v -0.166910 3.634856 -3.801775
v -0.166910 3.445144 -3.801775
v -5.253089 3.634856 -4.198224
v -5.253089 3.445144 -4.198224
v -5.253089 3.634856 -3.801775
v -5.253089 3.445144 -3.801775
v -0.196910 2.214856 -3.808224
v -0.196910 2.025144 -3.808224
v -0.196910 2.214856 -3.411775
v -0.196910 2.025144 -3.411775
v -5.043089 2.214856 -3.808224
v -5.043089 2.025144 -3.808224
v -5.043089 2.214856 -3.411775
v -5.043089 2.025144 -3.411775
v -4.760074 2.012687 -3.808224
v -4.949605 2.004412 -3.808224
v -4.760074 2.012687 -3.411776
v -4.949605 2.004412 -3.411776
v -4.910394 5.455587 -3.808224
v -5.099926 5.447312 -3.808224
v -4.910394 5.455587 -3.411776
v -5.099926 5.447312 -3.411776
v -0.198224 2.204856 3.809999
v -0.198224 2.035144 3.809999
v 0.198224 2.204856 3.809999
v 0.198224 2.035144 3.809999
v -0.198224 2.204856 -3.790000
v -0.198224 2.035144 -3.790000
v 0.198224 2.204856 -3.790000
v 0.198224 2.035144 -3.790000
v -5.096827 5.438128 3.820000
v -4.907267 5.445742 3.820000
v -5.112737 5.834257 3.820000
v -4.923177 5.841871 3.820000
v -5.096827 5.438128 -3.800000
v -4.907267 5.445742 -3.800000
v -5.112737 5.834257 -3.800000
v -4.923177 5.841871 -3.800000
v -5.096827 4.938129 3.449999
v -4.907267 4.945743 3.449999
v -5.112737 5.334258 3.449999
v -4.923177 5.341871 3.449999
v -5.096827 4.938129 -3.430000
v -4.907267 4.945743 -3.430000
v -5.112737 5.334258 -3.430000
v -4.923177 5.341871 -3.430000
v -5.096827 4.438129 3.449999
v -4.907267 4.445743 3.449999
v -5.112737 4.834258 3.449999
v -4.923177 4.841871 3.449999
v -5.096827 4.438129 -3.430000
v -4.907267 4.445743 -3.430000
v -5.112737 4.834258 -3.430000
v -4.923177 4.841871 -3.430000
v -5.096827 3.938129 3.449999
v -4.907267 3.945742 3.449999
v -5.112737 4.334257 3.449999
v -4.923177 4.341871 3.449999
v -5.096827 3.938129 -3.430000
v -4.907267 3.945742 -3.430000
v -5.112737 4.334257 -3.430000
v -4.923177 4.341871 -3.430000
v -5.096827 3.438129 3.449999
v -4.907267 3.445743 3.449999
v -5.112737 3.834258 3.449999
v -4.923177 3.841871 3.449999
v -5.096827 3.438129 -3.430000
v -4.907267 3.445743 -3.430000
v -5.112737 3.834258 -3.430000
v -4.923177 3.841871 -3.430000
v -5.096827 2.938129 3.449999
v -4.907267 2.945743 3.449999
v -5.112737 3.334258 3.449999
v -4.923177 3.341871 3.449999
v -5.096827 2.938129 -3.430000
v -4.907267 2.945743 -3.430000
v -5.112737 3.334258 -3.430000
v -4.923177 3.341871 -3.430000
vt 0.375000 0.000000
vt 0.625000 0.000000
vt 0.625000 0.250000
vt 0.375000 0.250000
vt 0.625000 0.500000
vt 0.375000 0.500000
vt 0.625000 0.750000
vt 0.375000 0.750000
vt 0.625000 1.000000
vt 0.375000 1.000000
vt 0.125000 0.500000
vt 0.125000 0.750000
vt 0.875000 0.500000
vt 0.875000 0.750000
vt 0.625000 0.500000
vt 0.875000 0.500000
vt 0.875000 0.750000
vt 0.625000 0.750000
vt 0.375000 0.750000
vt 0.625000 1.000000
vt 0.375000 1.000000
vt 0.375000 0.000000
vt 0.625000 0.000000
vt 0.625000 0.250000
vt 0.375000 0.250000
vt 0.125000 0.500000
vt 0.375000 0.500000
vt 0.125000 0.750000
vt 0.625000 0.500000
vt 0.875000 0.500000
vt 0.875000 0.750000
vt 0.625000 0.750000
vt 0.375000 0.750000
vt 0.625000 1.000000
vt 0.375000 1.000000
vt 0.375000 0.000000
vt 0.625000 0.000000
vt 0.625000 0.250000
vt 0.375000 0.250000
vt 0.125000 0.500000
vt 0.375000 0.500000
vt 0.125000 0.750000
vt 0.625000 0.500000
vt 0.875000 0.500000
vt 0.875000 0.750000
vt 0.625000 0.750000
vt 0.375000 0.750000
vt 0.625000 1.000000
vt 0.375000 1.000000
vt 0.375000 0.000000
vt 0.625000 0.000000
vt 0.625000 0.250000
vt 0.375000 0.250000
vt 0.125000 0.500000
vt 0.375000 0.500000
vt 0.125000 0.750000
vt 0.375000 0.000000
vt 0.625000 0.000000
vt 0.625000 0.250000
vt 0.375000 0.250000
vt 0.625000 0.500000
vt 0.375000 0.500000
vt 0.625000 0.750000
vt 0.375000 0.750000
vt 0.625000 1.000000
vt 0.375000 1.000000
vt 0.125000 0.500000
vt 0.125000 0.750000
vt 0.875000 0.500000
vt 0.875000 0.750000
vt 0.375000 0.000000
vt 0.625000 0.000000
vt 0.625000 0.250000
vt 0.375000 0.250000
vt 0.625000 0.500000
vt 0.375000 0.500000
vt 0.625000 0.750000
vt 0.375000 0.750000
vt 0.625000 1.000000
vt 0.375000 1.000000
vt 0.125000 0.500000
vt 0.125000 0.750000
vt 0.875000 0.500000
vt 0.875000 0.750000
vt 0.375000 0.000000
vt 0.625000 0.000000
vt 0.625000 0.250000
vt 0.375000 0.250000
vt 0.625000 0.500000
vt 0.375000 0.500000
vt 0.625000 0.750000
vt 0.375000 0.750000
vt 0.625000 1.000000
vt 0.375000 1.000000
vt 0.125000 0.500000
vt 0.125000 0.750000
vt 0.875000 0.500000
vt 0.875000 0.750000
vt 0.375000 0.000000
vt 0.625000 0.000000
vt 0.625000 0.250000
vt 0.375000 0.250000
vt 0.625000 0.500000
vt 0.375000 0.500000
vt 0.625000 0.750000
vt 0.375000 0.750000
vt 0.625000 1.000000
vt 0.375000 1.000000
vt 0.125000 0.500000
vt 0.125000 0.750000
vt 0.875000 0.500000
vt 0.875000 0.750000
vt 0.375000 0.000000
vt 0.625000 0.000000
vt 0.625000 0.250000
vt 0.375000 0.250000
vt 0.625000 0.500000
vt 0.375000 0.500000
vt 0.625000 0.750000
vt 0.375000 0.750000
vt 0.625000 1.000000
vt 0.375000 1.000000
vt 0.125000 0.500000
vt 0.125000 0.750000
vt 0.875000 0.500000
vt 0.875000 0.750000
vt 0.375000 0.000000
vt 0.625000 0.000000
vt 0.625000 0.250000
vt 0.375000 0.250000
vt 0.625000 0.500000
vt 0.375000 0.500000
vt 0.625000 0.750000
vt 0.375000 0.750000
vt 0.625000 1.000000
vt 0.375000 1.000000
vt 0.125000 0.500000
vt 0.125000 0.750000
vt 0.875000 0.500000
vt 0.875000 0.750000
vt 0.375000 0.000000
vt 0.625000 0.000000
vt 0.625000 0.250000
vt 0.375000 0.250000
vt 0.625000 0.500000
vt 0.375000 0.500000
vt 0.625000 0.750000
vt 0.375000 0.750000
vt 0.625000 1.000000
vt 0.375000 1.000000
vt 0.125000 0.500000
vt 0.125000 0.750000
vt 0.875000 0.500000
vt 0.875000 0.750000
vt 0.375000 0.000000
vt 0.625000 0.000000
vt 0.625000 0.250000
vt 0.375000 0.250000
vt 0.625000 0.500000
vt 0.375000 0.500000
vt 0.625000 0.750000
vt 0.375000 0.750000
vt 0.625000 1.000000
vt 0.375000 1.000000
vt 0.125000 0.500000
vt 0.125000 0.750000
vt 0.875000 0.500000
vt 0.875000 0.750000
vt 0.375000 0.000000
vt 0.625000 0.000000
vt 0.625000 0.250000
vt 0.375000 0.250000
vt 0.625000 0.500000
vt 0.375000 0.500000
vt 0.625000 0.750000
vt 0.375000 0.750000
vt 0.625000 1.000000
vt 0.375000 1.000000
vt 0.125000 0.500000
vt 0.125000 0.750000
vt 0.875000 0.500000
vt 0.875000 0.750000
vt 0.375000 0.000000
vt 0.625000 0.000000
vt 0.625000 0.250000
vt 0.375000 0.250000
vt 0.625000 0.500000
vt 0.375000 0.500000
vt 0.625000 0.750000
vt 0.375000 0.750000
vt 0.625000 1.000000
vt 0.375000 1.000000
vt 0.125000 0.500000
vt 0.125000 0.750000
vt 0.875000 0.500000
vt 0.875000 0.750000
vt 0.375000 0.000000
vt 0.625000 0.000000
vt 0.625000 0.250000
vt 0.375000 0.250000
vt 0.625000 0.500000
vt 0.375000 0.500000
vt 0.625000 0.750000
vt 0.375000 0.750000
vt 0.625000 1.000000
vt 0.375000 1.000000
vt 0.125000 0.500000
vt 0.125000 0.750000
vt 0.875000 0.500000
vt 0.875000 0.750000
vt 0.375000 0.000000
vt 0.625000 0.000000
vt 0.625000 0.250000
vt 0.375000 0.250000
vt 0.625000 0.500000
vt 0.375000 0.500000
vt 0.625000 0.750000
vt 0.375000 0.750000
vt 0.625000 1.000000
vt 0.375000 1.000000
vt 0.125000 0.500000
vt 0.125000 0.750000
vt 0.875000 0.500000
vt 0.875000 0.750000
vt 0.375000 0.000000
vt 0.625000 0.000000
vt 0.625000 0.250000
vt 0.375000 0.250000
vt 0.625000 0.500000
vt 0.375000 0.500000
vt 0.625000 0.750000
vt 0.375000 0.750000
vt 0.625000 1.000000
vt 0.375000 1.000000
vt 0.125000 0.500000
vt 0.125000 0.750000
vt 0.875000 0.500000
vt 0.875000 0.750000
vt 0.375000 0.000000
vt 0.625000 0.000000
vt 0.625000 0.250000
vt 0.375000 0.250000
vt 0.625000 0.500000
vt 0.375000 0.500000
vt 0.625000 0.750000
vt 0.375000 0.750000
vt 0.625000 1.000000
vt 0.375000 1.000000
vt 0.125000 0.500000
vt 0.125000 0.750000
vt 0.875000 0.500000
vt 0.875000 0.750000
vt 0.375000 0.000000
vt 0.625000 0.000000
vt 0.625000 0.250000
vt 0.375000 0.250000
vt 0.625000 0.500000
vt 0.375000 0.500000
vt 0.625000 0.750000
vt 0.375000 0.750000
vt 0.625000 1.000000
vt 0.375000 1.000000
vt 0.125000 0.500000
vt 0.125000 0.750000
vt 0.875000 0.500000
vt 0.875000 0.750000
vt 0.375000 0.000000
vt 0.625000 0.000000
vt 0.625000 0.250000
vt 0.375000 0.250000
vt 0.625000 0.500000
vt 0.375000 0.500000
vt 0.625000 0.750000
vt 0.375000 0.750000
vt 0.625000 1.000000
vt 0.375000 1.000000
vt 0.125000 0.500000
vt 0.125000 0.750000
vt 0.875000 0.500000
vt 0.875000 0.750000
vt 0.375000 0.000000
vt 0.625000 0.000000
vt 0.625000 0.250000
vt 0.375000 0.250000
vt 0.625000 0.500000
vt 0.375000 0.500000
vt 0.625000 0.750000
vt 0.375000 0.750000
vt 0.625000 1.000000
vt 0.375000 1.000000
vt 0.125000 0.500000
vt 0.125000 0.750000
vt 0.875000 0.500000
vt 0.875000 0.750000
vt 0.375000 0.000000
vt 0.625000 0.000000
vt 0.625000 0.250000
vt 0.375000 0.250000
vt 0.625000 0.500000
vt 0.375000 0.500000
vt 0.625000 0.750000
vt 0.375000 0.750000
vt 0.625000 1.000000
vt 0.375000 1.000000
vt 0.125000 0.500000
vt 0.125000 0.750000
vt 0.875000 0.500000
vt 0.875000 0.750000
vt 0.375000 0.000000
vt 0.625000 0.000000
vt 0.625000 0.250000
vt 0.375000 0.250000
vt 0.625000 0.500000
vt 0.375000 0.500000
vt 0.625000 0.750000
vt 0.375000 0.750000
vt 0.625000 1.000000
vt 0.375000 1.000000
vt 0.125000 0.500000
vt 0.125000 0.750000
vt 0.875000 0.500000
vt 0.875000 0.750000
vt 0.375000 0.000000
vt 0.625000 0.000000
vt 0.625000 0.250000
vt 0.375000 0.250000
vt 0.625000 0.500000
vt 0.375000 0.500000
vt 0.625000 0.750000
vt 0.375000 0.750000
vt 0.625000 1.000000
vt 0.375000 1.000000
vt 0.125000 0.500000
vt 0.125000 0.750000
vt 0.875000 0.500000
vt 0.875000 0.750000
vt 0.375000 0.000000
vt 0.625000 0.000000
vt 0.625000 0.250000
vt 0.375000 0.250000
vt 0.625000 0.500000
vt 0.375000 0.500000
vt 0.625000 0.750000
vt 0.375000 0.750000
vt 0.625000 1.000000
vt 0.375000 1.000000
vt 0.125000 0.500000
vt 0.125000 0.750000
vt 0.875000 0.500000
vt 0.875000 0.750000
vt 0.375000 0.000000
vt 0.625000 0.000000
vt 0.625000 0.250000
vt 0.375000 0.250000
vt 0.625000 0.500000
vt 0.375000 0.500000
vt 0.625000 0.750000
vt 0.375000 0.750000
vt 0.625000 1.000000
vt 0.375000 1.000000
vt 0.125000 0.500000
vt 0.125000 0.750000
vt 0.875000 0.500000
vt 0.875000 0.750000
vt 0.375000 0.000000
vt 0.625000 0.000000
vt 0.625000 0.250000
vt 0.375000 0.250000
vt 0.625000 0.500000
vt 0.375000 0.500000
vt 0.625000 0.750000
vt 0.375000 0.750000
vt 0.625000 1.000000
vt 0.375000 1.000000
vt 0.125000 0.500000
vt 0.125000 0.750000
vt 0.875000 0.500000
vt 0.875000 0.750000
vt 0.625000 0.500000
vt 0.875000 0.500000
vt 0.875000 0.750000
vt 0.625000 0.750000
vt 0.375000 0.750000
vt 0.625000 1.000000
vt 0.375000 1.000000
vt 0.375000 0.000000
vt 0.625000 0.000000
vt 0.625000 0.250000
vt 0.375000 0.250000
vt 0.125000 0.500000
vt 0.375000 0.500000
vt 0.125000 0.750000
vn 0.0000 0.0000 1.0000
vn 1.0000 0.0000 -0.0000
vn 0.0000 0.0000 -1.0000
vn -1.0000 0.0000 0.0000
vn 0.0000 1.0000 -0.0000
vn 0.0000 -1.0000 0.0000
vn -0.1240 -0.9923 0.0000
vn -0.9923 0.1240 0.0000
vn 0.1240 0.9923 0.0000
vn 0.9923 -0.1240 0.0000
vn 0.1240 -0.9923 0.0000
vn -0.9923 -0.1240 0.0000
vn -0.1240 0.9923 0.0000
vn 0.9923 0.1240 0.0000
vn -0.0401 0.9992 0.0000
vn 0.0401 -0.9992 0.0000
vn -0.9992 -0.0401 0.0000
vn 0.9992 0.0401 0.0000
vn -0.0454 0.9990 0.0000
vn 0.0454 -0.9990 0.0000
vn -0.9990 -0.0454 0.0000
vn 0.9990 0.0454 0.0000
vn -0.0436 0.9990 0.0000
vn 0.0436 -0.9990 0.0000
vn -0.9990 -0.0436 0.0000
vn 0.9990 0.0436 0.0000
usemtl Material.001
s off
f 1/1/1 2/2/1 4/3/1 3/4/1
f 3/4/2 4/3/2 8/5/2 7/6/2
f 7/6/3 8/5/3 6/7/3 5/8/3
f 5/8/4 6/7/4 2/9/4 1/10/4
f 3/11/5 7/6/5 5/8/5 1/12/5
f 8/5/6 4/13/6 2/14/6 6/7/6
f 9/15/7 13/16/7 15/17/7 11/18/7
f 12/19/3 11/18/3 15/20/3 16/21/3
f 16/22/8 15/23/8 13/24/8 14/25/8
f 14/26/9 10/27/9 12/19/9 16/28/9
f 10/27/10 9/15/10 11/18/10 12/19/10
f 14/25/1 13/24/1 9/15/1 10/27/1
usemtl Material
f 17/29/7 21/30/7 23/31/7 19/32/7
f 20/33/3 19/32/3 23/34/3 24/35/3
f 24/36/8 23/37/8 21/38/8 22/39/8
f 22/40/9 18/41/9 20/33/9 24/42/9
f 18/41/10 17/29/10 19/32/10 20/33/10
f 22/39/1 21/38/1 17/29/1 18/41/1
usemtl Material.003
f 25/43/11 29/44/11 31/45/11 27/46/11
f 28/47/3 27/46/3 31/48/3 32/49/3
f 32/50/12 31/51/12 29/52/12 30/53/12
f 30/54/13 26/55/13 28/47/13 32/56/13
f 26/55/14 25/43/14 27/46/14 28/47/14
f 30/53/1 29/52/1 25/43/1 26/55/1
f 41/57/4 42/58/4 44/59/4 43/60/4
f 43/60/3 44/59/3 48/61/3 47/62/3
f 47/62/2 48/61/2 46/63/2 45/64/2
f 45/64/1 46/63/1 42/65/1 41/66/1
f 43/67/6 47/62/6 45/64/6 41/68/6
f 48/61/5 44/69/5 42/70/5 46/63/5
f 49/71/1 50/72/1 52/73/1 51/74/1
f 51/74/2 52/73/2 56/75/2 55/76/2
f 55/76/3 56/75/3 54/77/3 53/78/3
f 53/78/4 54/77/4 50/79/4 49/80/4
f 51/81/5 55/76/5 53/78/5 49/82/5
f 56/75/6 52/83/6 50/84/6 54/77/6
f 57/85/1 58/86/1 60/87/1 59/88/1
f 59/88/2 60/87/2 64/89/2 63/90/2
f 63/90/3 64/89/3 62/91/3 61/92/3
f 61/92/4 62/91/4 58/93/4 57/94/4
f 59/95/5 63/90/5 61/92/5 57/96/5
f 64/89/6 60/97/6 58/98/6 62/91/6
f 65/99/1 66/100/1 68/101/1 67/102/1
f 67/102/2 68/101/2 72/103/2 71/104/2
f 71/104/3 72/103/3 70/105/3 69/106/3
f 69/106/4 70/105/4 66/107/4 65/108/4
f 67/109/5 71/104/5 69/106/5 65/110/5
f 72/103/6 68/111/6 66/112/6 70/105/6
f 73/113/1 74/114/1 76/115/1 75/116/1
f 75/116/2 76/115/2 80/117/2 79/118/2
f 79/118/3 80/117/3 78/119/3 77/120/3
f 77/120/4 78/119/4 74/121/4 73/122/4
f 75/123/5 79/118/5 77/120/5 73/124/5
f 80/117/6 76/125/6 74/126/6 78/119/6
f 81/127/1 82/128/1 84/129/1 83/130/1
f 83/130/2 84/129/2 88/131/2 87/132/2
f 87/132/3 88/131/3 86/133/3 85/134/3
f 85/134/4 86/133/4 82/135/4 81/136/4
f 83/137/5 87/132/5 85/134/5 81/138/5
f 88/131/6 84/139/6 82/140/6 86/133/6
f 89/141/1 90/142/1 92/143/1 91/144/1
f 91/144/2 92/143/2 96/145/2 95/146/2
f 95/146/3 96/145/3 94/147/3 93/148/3
f 93/148/4 94/147/4 90/149/4 89/150/4
f 91/151/5 95/146/5 93/148/5 89/152/5
f 96/145/6 92/153/6 90/154/6 94/147/6
f 97/155/1 98/156/1 100/157/1 99/158/1
f 99/158/2 100/157/2 104/159/2 103/160/2
f 103/160/3 104/159/3 102/161/3 101/162/3
f 101/162/4 102/161/4 98/163/4 97/164/4
f 99/165/5 103/160/5 101/162/5 97/166/5
f 104/159/6 100/167/6 98/168/6 102/161/6
f 105/169/1 106/170/1 108/171/1 107/172/1
f 107/172/2 108/171/2 112/173/2 111/174/2
f 111/174/3 112/173/3 110/175/3 109/176/3
f 109/176/4 110/175/4 106/177/4 105/178/4
f 107/179/5 111/174/5 109/176/5 105/180/5
f 112/173/6 108/181/6 106/182/6 110/175/6
f 113/183/1 114/184/1 116/185/1 115/186/1
f 115/186/2 116/185/2 120/187/2 119/188/2
f 119/188/3 120/187/3 118/189/3 117/190/3
f 117/190/4 118/189/4 114/191/4 113/192/4
f 115/193/5 119/188/5 117/190/5 113/194/5
f 120/187/6 116/195/6 114/196/6 118/189/6
f 121/197/1 122/198/1 124/199/1 123/200/1
f 123/200/15 124/199/15 128/201/15 127/202/15
f 127/202/3 128/201/3 126/203/3 125/204/3
f 125/204/16 126/203/16 122/205/16 121/206/16
f 123/207/17 127/202/17 125/204/17 121/208/17
f 128/201/18 124/209/18 122/210/18 126/203/18
f 129/211/4 130/212/4 132/213/4 131/214/4
f 131/214/3 132/213/3 136/215/3 135/216/3
f 135/216/2 136/215/2 134/217/2 133/218/2
f 133/218/1 134/217/1 130/219/1 129/220/1
f 131/221/6 135/216/6 133/218/6 129/222/6
f 136/215/5 132/223/5 130/224/5 134/217/5
f 137/225/19 138/226/19 140/227/19 139/228/19
f 139/228/3 140/227/3 144/229/3 143/230/3
f 143/230/20 144/229/20 142/231/20 141/232/20
f 141/232/1 142/231/1 138/233/1 137/234/1
f 139/235/21 143/230/21 141/232/21 137/236/21
f 144/229/22 140/237/22 138/238/22 142/231/22
f 145/239/4 146/240/4 148/241/4 147/242/4
f 147/242/3 148/241/3 152/243/3 151/244/3
f 151/244/2 152/243/2 150/245/2 149/246/2
f 149/246/1 150/245/1 146/247/1 145/248/1
f 147/249/6 151/244/6 149/246/6 145/250/6
f 152/243/5 148/251/5 146/252/5 150/245/5
f 153/253/4 154/254/4 156/255/4 155/256/4
f 155/256/3 156/255/3 160/257/3 159/258/3
f 159/258/2 160/257/2 158/259/2 157/260/2
f 157/260/1 158/259/1 154/261/1 153/262/1
f 155/263/6 159/258/6 157/260/6 153/264/6
f 160/257/5 156/265/5 154/266/5 158/259/5
f 161/267/23 162/268/23 164/269/23 163/270/23
f 163/270/3 164/269/3 168/271/3 167/272/3
f 167/272/24 168/271/24 166/273/24 165/274/24
f 165/274/1 166/273/1 162/275/1 161/276/1
f 163/277/25 167/272/25 165/274/25 161/278/25
f 168/271/26 164/279/26 162/280/26 166/273/26
f 169/281/1 170/282/1 172/283/1 171/284/1
f 171/284/2 172/283/2 176/285/2 175/286/2
f 175/286/3 176/285/3 174/287/3 173/288/3
f 173/288/4 174/287/4 170/289/4 169/290/4
f 171/291/5 175/286/5 173/288/5 169/292/5
f 176/285/6 172/293/6 170/294/6 174/287/6
f 177/295/1 178/296/1 180/297/1 179/298/1
f 179/298/15 180/297/15 184/299/15 183/300/15
f 183/300/3 184/299/3 182/301/3 181/302/3
f 181/302/16 182/301/16 178/303/16 177/304/16
f 179/305/17 183/300/17 181/302/17 177/306/17
f 184/299/18 180/307/18 178/308/18 182/301/18
f 185/309/1 186/310/1 188/311/1 187/312/1
f 187/312/15 188/311/15 192/313/15 191/314/15
f 191/314/3 192/313/3 190/315/3 189/316/3
f 189/316/16 190/315/16 186/317/16 185/318/16
f 187/319/17 191/314/17 189/316/17 185/320/17
f 192/313/18 188/321/18 186/322/18 190/315/18
f 193/323/1 194/324/1 196/325/1 195/326/1
f 195/326/15 196/325/15 200/327/15 199/328/15
f 199/328/3 200/327/3 198/329/3 197/330/3
f 197/330/16 198/329/16 194/331/16 193/332/16
f 195/333/17 199/328/17 197/330/17 193/334/17
f 200/327/18 196/335/18 194/336/18 198/329/18
f 201/337/1 202/338/1 204/339/1 203/340/1
f 203/340/15 204/339/15 208/341/15 207/342/15
f 207/342/3 208/341/3 206/343/3 205/344/3
f 205/344/16 206/343/16 202/345/16 201/346/16
f 203/347/17 207/342/17 205/344/17 201/348/17
f 208/341/18 204/349/18 202/350/18 206/343/18
f 209/351/1 210/352/1 212/353/1 211/354/1
f 211/354/15 212/353/15 216/355/15 215/356/15
f 215/356/3 216/355/3 214/357/3 213/358/3
f 213/358/16 214/357/16 210/359/16 209/360/16
f 211/361/17 215/356/17 213/358/17 209/362/17
f 216/355/18 212/363/18 210/364/18 214/357/18
f 217/365/1 218/366/1 220/367/1 219/368/1
f 219/368/15 220/367/15 224/369/15 223/370/15
f 223/370/3 224/369/3 222/371/3 221/372/3
f 221/372/16 222/371/16 218/373/16 217/374/16
f 219/375/17 223/370/17 221/372/17 217/376/17
f 224/369/18 220/377/18 218/378/18 222/371/18
usemtl Material.002
f 33/379/11 37/380/11 39/381/11 35/382/11
f 36/383/3 35/382/3 39/384/3 40/385/3
f 40/386/12 39/387/12 37/388/12 38/389/12
f 38/390/13 34/391/13 36/383/13 40/392/13
f 34/391/14 33/379/14 35/382/14 36/383/14
f 38/389/1 37/388/1 33/379/1 34/391/1
